<svg width="359" height="60" viewBox="0 0 359 60" fill="none" xmlns="http://www.w3.org/2000/svg">
<rect width="359" height="60" rx="13" fill="white"/>
<path d="M145.698 37H147.456V31.4238H150.825L153.843 37H155.904L152.642 31.1504C154.4 30.5938 155.474 29.0801 155.474 27.127V27.1074C155.474 24.5684 153.696 22.9082 150.982 22.9082H145.698V37ZM147.456 29.8711V24.4707H150.747C152.554 24.4707 153.657 25.4668 153.657 27.1465V27.166C153.657 28.8945 152.632 29.8711 150.825 29.8711H147.456ZM161.987 37.1953C164.203 37.1953 165.864 35.8672 166.196 34.1875L166.215 34.0898H164.545L164.516 34.1777C164.223 35.0469 163.315 35.6914 162.026 35.6914C160.219 35.6914 159.067 34.4707 159.028 32.3809H166.342V31.7559C166.342 28.709 164.653 26.6484 161.879 26.6484C159.106 26.6484 157.309 28.8066 157.309 31.9512V31.9609C157.309 35.1543 159.067 37.1953 161.987 37.1953ZM161.869 28.1523C163.354 28.1523 164.448 29.0801 164.614 31.0527H159.057C159.243 29.1582 160.395 28.1523 161.869 28.1523ZM172.044 37.1953C174.31 37.1953 175.99 35.9453 175.99 34.168V34.1582C175.99 32.7129 175.247 31.9023 173.197 31.4043L171.585 31.0137C170.462 30.7402 170.003 30.2617 170.003 29.5684V29.5586C170.003 28.6602 170.765 28.0645 171.996 28.0645C173.255 28.0645 174.007 28.7188 174.144 29.7051L174.154 29.7734H175.775L175.765 29.6465C175.638 27.9473 174.222 26.6484 171.996 26.6484C169.798 26.6484 168.265 27.8887 168.265 29.6367V29.6465C168.265 31.1113 169.193 32 171.107 32.459L172.718 32.8496C173.871 33.1328 174.251 33.543 174.251 34.2754V34.2852C174.251 35.2031 173.431 35.7793 172.054 35.7793C170.667 35.7793 169.915 35.1836 169.71 34.168L169.691 34.0703H167.992L168.001 34.1582C168.206 35.9746 169.652 37.1953 172.044 37.1953ZM181.604 37.1953C183.147 37.1953 184.182 36.502 184.729 35.5547H184.768V37H186.467V26.8438H184.768V32.8203C184.768 34.5488 183.723 35.6914 182.122 35.6914C180.559 35.6914 179.788 34.7832 179.788 33.1328V26.8438H178.088V33.4355C178.088 35.75 179.378 37.1953 181.604 37.1953ZM189.064 37H190.763V30.6328C190.763 29.2168 191.74 28.1523 193.088 28.1523C194.347 28.1523 195.168 28.9629 195.168 30.1934V37H196.867V30.5449C196.867 29.1582 197.814 28.1523 199.162 28.1523C200.5 28.1523 201.271 28.9824 201.271 30.3789V37H202.97V29.9883C202.97 27.9668 201.672 26.6484 199.66 26.6484C198.234 26.6484 197.043 27.3809 196.476 28.6016H196.437C195.998 27.3613 194.972 26.6484 193.586 26.6484C192.277 26.6484 191.261 27.3223 190.802 28.3281H190.763V26.8438H189.064V37ZM209.698 37.1953C211.915 37.1953 213.575 35.8672 213.907 34.1875L213.927 34.0898H212.257L212.227 34.1777C211.934 35.0469 211.026 35.6914 209.737 35.6914C207.93 35.6914 206.778 34.4707 206.739 32.3809H214.054V31.7559C214.054 28.709 212.364 26.6484 209.591 26.6484C206.817 26.6484 205.02 28.8066 205.02 31.9512V31.9609C205.02 35.1543 206.778 37.1953 209.698 37.1953ZM209.581 28.1523C211.065 28.1523 212.159 29.0801 212.325 31.0527H206.768C206.954 29.1582 208.106 28.1523 209.581 28.1523Z" fill="#E48344"/>
</svg>
