<svg width="359" height="60" viewBox="0 0 359 60" fill="none" xmlns="http://www.w3.org/2000/svg">
<rect width="359" height="60" rx="13" fill="white"/>
<path d="M154.687 37H156.445V31.9707H159.707C162.353 31.9707 164.228 30.1055 164.228 27.4297V27.4102C164.228 24.7344 162.353 22.9082 159.707 22.9082H154.687V37ZM159.258 24.4707C161.269 24.4707 162.431 25.5742 162.431 27.4297V27.4492C162.431 29.3047 161.269 30.4082 159.258 30.4082H156.445V24.4707H159.258ZM168.456 37.1953C169.813 37.1953 171.034 36.4629 171.63 35.3496H171.669V37H173.368V29.9785C173.368 27.9473 171.864 26.6484 169.462 26.6484C167.069 26.6484 165.614 27.9961 165.468 29.666L165.458 29.7734H167.099L167.118 29.6855C167.313 28.7773 168.134 28.1523 169.442 28.1523C170.858 28.1523 171.669 28.9043 171.669 30.1445V30.9941L168.759 31.1602C166.425 31.2969 165.077 32.3809 165.077 34.1094V34.1289C165.077 35.9746 166.434 37.1953 168.456 37.1953ZM166.815 34.1289V34.1094C166.815 33.1621 167.597 32.5566 168.954 32.4785L171.669 32.3125V33.1426C171.669 34.6172 170.438 35.7207 168.837 35.7207C167.616 35.7207 166.815 35.1055 166.815 34.1289ZM179.373 37.1953C180.916 37.1953 181.951 36.502 182.498 35.5547H182.537V37H184.236V26.8438H182.537V32.8203C182.537 34.5488 181.492 35.6914 179.891 35.6914C178.328 35.6914 177.557 34.7832 177.557 33.1328V26.8438H175.857V33.4355C175.857 35.75 177.146 37.1953 179.373 37.1953ZM190.437 37.1953C192.702 37.1953 194.382 35.9453 194.382 34.168V34.1582C194.382 32.7129 193.64 31.9023 191.589 31.4043L189.978 31.0137C188.855 30.7402 188.396 30.2617 188.396 29.5684V29.5586C188.396 28.6602 189.157 28.0645 190.388 28.0645C191.648 28.0645 192.4 28.7188 192.536 29.7051L192.546 29.7734H194.167L194.157 29.6465C194.03 27.9473 192.614 26.6484 190.388 26.6484C188.191 26.6484 186.657 27.8887 186.657 29.6367V29.6465C186.657 31.1113 187.585 32 189.499 32.459L191.11 32.8496C192.263 33.1328 192.644 33.543 192.644 34.2754V34.2852C192.644 35.2031 191.823 35.7793 190.446 35.7793C189.06 35.7793 188.308 35.1836 188.103 34.168L188.083 34.0703H186.384L186.394 34.1582C186.599 35.9746 188.044 37.1953 190.437 37.1953ZM200.709 37.1953C202.926 37.1953 204.586 35.8672 204.918 34.1875L204.938 34.0898H203.268L203.239 34.1777C202.946 35.0469 202.037 35.6914 200.748 35.6914C198.942 35.6914 197.789 34.4707 197.75 32.3809H205.065V31.7559C205.065 28.709 203.375 26.6484 200.602 26.6484C197.828 26.6484 196.031 28.8066 196.031 31.9512V31.9609C196.031 35.1543 197.789 37.1953 200.709 37.1953ZM200.592 28.1523C202.076 28.1523 203.17 29.0801 203.336 31.0527H197.78C197.965 29.1582 199.117 28.1523 200.592 28.1523Z" fill="#E48344"/>
</svg>
